<svg xmlns="http://www.w3.org/2000/svg" width="18.668" height="24.176" viewBox="0 0 18.668 24.176"><g transform="translate(-1629.82 -838.814)"><g transform="translate(1629.82 838.814)"><path d="M1639.184,859.306c-2.68,0-5.361-.033-8.041.014-1.178.021-1.534-.8-1.209-1.761.17-.5.414-.982.58-1.486a3.729,3.729,0,0,0,.225-1.1c.023-1.9,0-3.807.016-5.711a7.694,7.694,0,0,1,2.016-5.1,7.788,7.788,0,0,1,4.445-2.684c.348-.068.344-.279.266-.545a1.762,1.762,0,0,1,.691-1.87,2.068,2.068,0,0,1,1.92-.024,1.686,1.686,0,0,1,.755,1.775c-.117.45.01.595.454.714a8.05,8.05,0,0,1,5.862,5.537,8.964,8.964,0,0,1,.385,2.456c.059,1.612.069,3.23,0,4.841a6.479,6.479,0,0,0,.663,2.8,3.518,3.518,0,0,1,.217.551c.217.963-.2,1.612-1.207,1.6C1644.545,859.286,1641.864,859.307,1639.184,859.306Z" transform="translate(-1629.82 -838.814)" fill="#e6e6e6"/><path d="M1703.613,1079.084a3.413,3.413,0,0,1-2.59,2.074,3.5,3.5,0,0,1-3.768-1.632.649.649,0,0,1-.118-.4c.008-.058.229-.119.353-.12q2.829-.01,5.657,0A3.232,3.232,0,0,1,1703.613,1079.084Z" transform="translate(-1690.98 -1057.044)" fill="#e6e6e6"/></g></g></svg>