<svg xmlns="http://www.w3.org/2000/svg" width="98" height="114.841" viewBox="0 0 98 114.841"><g transform="translate(-446.76 -379.146) rotate(14)"><g transform="translate(546.462 254.505)"><path d="M609.847,325.58l-.519-4.88h-1.485q-6.341,0-12.683,0a2.685,2.685,0,0,1-1.293-.113c-.466-.288-1.108-.828-1.088-1.229.026-.506.579-1.06,1.033-1.439.248-.207.761-.127,1.154-.128q7.53-.01,15.061,0c1.955,0,2.28.349,2.286,2.326,0,.837-.032,1.675.01,2.51.089,1.8,1.228,3,2.737,2.938,1.54-.06,2.48-1.145,2.481-2.994q.014-27.215-.005-54.43a4.246,4.246,0,0,0-4.335-4.369c-2.239-.036-4.479-.008-6.821-.008-.091,1.911.14,3.92-1.655,5.09a6.506,6.506,0,0,1-2.773.975,3.387,3.387,0,0,1-3.513-1.89,21.654,21.654,0,0,1-1.07-4.1H573.454c.023,1.92,0,3.907-1.771,5.1a5.5,5.5,0,0,1-2.8.893c-2.642.059-3.734-1.54-4.312-6.036-2.173,0-4.366-.083-6.55.026a4.156,4.156,0,0,0-3.651,3.475,14.6,14.6,0,0,0-.1,1.976c-.014,1.135,0,2.27,0,3.6h1.8q24.441,0,48.882,0a4.039,4.039,0,0,1,1.687.137,1.355,1.355,0,0,1,.115,2.605,3.617,3.617,0,0,1-1.679.166q-24.441.01-48.882.005h-1.925v1.63q0,7.134-.005,14.268a2.74,2.74,0,0,1-.151,1.415,2.072,2.072,0,0,1-1.367.944c-.442-.011-.988-.582-1.262-1.042a3.007,3.007,0,0,1-.128-1.422c-.006-7.487.1-14.975-.039-22.459-.093-5.163,3.474-8.627,8.381-8.289,1.612.111,3.239.017,5,.017,0-.707-.025-1.31,0-1.911a4.354,4.354,0,1,1,8.708-.041c.032.6,0,1.211,0,1.883H597.7c0-.731-.024-1.421,0-2.11a4.294,4.294,0,0,1,8.573-.183c.066.74.071,1.486.11,2.362,2.113,0,4.175-.006,6.236,0,4.8.017,7.833,3.044,7.835,7.854q.012,26.819,0,53.638c0,3.936-2.211,6.152-6.14,6.153q-30.848.009-61.7,0c-3.933,0-6.132-2.214-6.15-6.145,0-.881-.017-1.762,0-2.642.034-1.4.5-1.873,1.932-1.913.992-.027,1.986-.005,3.349-.005a11.821,11.821,0,0,1-3.928-10.621,11.215,11.215,0,0,1,3.951-7.261,11.943,11.943,0,0,1,15.814.214c3.845,3.511,6.086,11.035-.026,17.586.568.031,1.026.076,1.484.077,3.875.006,7.751,0,11.626.009a2.774,2.774,0,0,1,1.416.156,2.07,2.07,0,0,1,.966,1.347c-.007.441-.571,1.012-1.033,1.266a3.444,3.444,0,0,1-1.554.139q-14.6.009-29.2,0h-1.857a21.389,21.389,0,0,0,.019,2.543,2.4,2.4,0,0,0,2.195,2.276,7.606,7.606,0,0,0,1.053.058q28.205,0,56.411,0ZM568.5,308.841a8.945,8.945,0,1,0-8.921,8.916A9,9,0,0,0,568.5,308.841Zm2.01-46.586c0-1.1.036-2.2-.011-3.3a1.4,1.4,0,0,0-1.468-1.524,1.332,1.332,0,0,0-1.385,1.453c-.052,2.2-.046,4.4-.006,6.593a1.326,1.326,0,0,0,1.388,1.449,1.383,1.383,0,0,0,1.476-1.509C570.531,264.365,570.508,263.309,570.508,262.254Zm30.1-.095h.006c0,1.1-.02,2.2.006,3.3.02.85.388,1.451,1.331,1.467a1.34,1.34,0,0,0,1.5-1.346c.069-2.241.077-4.487,0-6.728a1.364,1.364,0,0,0-1.571-1.414c-.936.068-1.249.727-1.269,1.554C600.585,260.047,600.6,261.1,600.6,262.159Z" transform="translate(-546.462 -254.505)"/><path d="M649.51,426.094a5.465,5.465,0,1,1,5.418,5.63A5.514,5.514,0,0,1,649.51,426.094Zm7.995.1a2.516,2.516,0,0,0-2.494-2.524,2.612,2.612,0,0,0-2.572,2.607,2.737,2.737,0,0,0,2.524,2.563A2.614,2.614,0,0,0,657.5,426.19Z" transform="translate(-622.281 -376.814)"/><path d="M711.474,426.191a5.43,5.43,0,0,1-5.513,5.528,5.494,5.494,0,1,1,5.513-5.528Zm-2.951.012a2.509,2.509,0,0,0-2.476-2.54,2.61,2.61,0,0,0-2.589,2.588,2.739,2.739,0,0,0,2.507,2.581A2.611,2.611,0,0,0,708.524,426.2Z" transform="translate(-659.824 -376.808)"/><path d="M711.474,369.493a5.469,5.469,0,0,1-5.41,5.51,5.555,5.555,0,0,1-5.529-5.548,5.422,5.422,0,0,1,5.5-5.393A5.365,5.365,0,0,1,711.474,369.493Zm-2.941.073a2.62,2.62,0,0,0-2.514-2.663,2.694,2.694,0,0,0-2.56,2.517,2.653,2.653,0,0,0,2.54,2.661A2.593,2.593,0,0,0,708.533,369.566Z" transform="translate(-659.824 -335.113)"/><path d="M655.037,364.063a5.4,5.4,0,0,1,5.4,5.478,5.466,5.466,0,1,1-10.931-.13A5.4,5.4,0,0,1,655.037,364.063Zm2.478,5.5A2.62,2.62,0,0,0,655,366.9a2.694,2.694,0,0,0-2.56,2.517,2.653,2.653,0,0,0,2.54,2.661A2.593,2.593,0,0,0,657.515,369.567Z" transform="translate(-622.281 -335.114)"/><path d="M762.473,426.246a5.413,5.413,0,0,1-5.418,5.479,5.491,5.491,0,1,1,.008-10.983A5.465,5.465,0,0,1,762.473,426.246Zm-5.4-2.576a2.611,2.611,0,0,0-2.615,2.556,2.738,2.738,0,0,0,2.469,2.608,2.768,2.768,0,0,0,2.7-2.527A2.644,2.644,0,0,0,757.072,423.67Z" transform="translate(-697.347 -376.816)"/><path d="M762.474,369.5a5.466,5.466,0,0,1-5.4,5.507,5.574,5.574,0,0,1-5.538-5.549,5.435,5.435,0,0,1,5.511-5.39A5.352,5.352,0,0,1,762.474,369.5Zm-8.013-.118a2.642,2.642,0,0,0,2.356,2.692,2.716,2.716,0,0,0,2.805-2.394,2.585,2.585,0,1,0-5.161-.3Z" transform="translate(-697.348 -335.115)"/><path d="M598.505,369.507a5.4,5.4,0,0,1,5.416-5.453,5.453,5.453,0,0,1,5.519,5.509A5.582,5.582,0,0,1,603.934,375,5.522,5.522,0,0,1,598.505,369.507Zm8-.027a2.625,2.625,0,0,0-2.58-2.588,2.691,2.691,0,0,0-2.535,2.671,2.658,2.658,0,0,0,2.544,2.516A2.586,2.586,0,0,0,606.5,369.48Z" transform="translate(-584.754 -335.108)"/><path d="M702.438,493.436c.357.551.949,1.075,1.013,1.658a1.239,1.239,0,0,1-1.419,1.346c-.86-.031-1.481-.609-1.328-1.432.108-.579.73-1.062,1.122-1.588Z" transform="translate(-659.931 -430.291)"/><path d="M794.538,327.127c-.364-.544-.946-1.052-1.042-1.64-.141-.866.523-1.377,1.383-1.381a1.247,1.247,0,0,1,1.38,1.41c-.083.579-.709,1.081-1.093,1.617Z" transform="translate(-728.207 -305.715)"/><path d="M578.626,450.313c1.459-1.484,2.851-2.887,4.226-4.307.713-.736,1.53-1.219,2.389-.394s.476,1.655-.277,2.4c-1.69,1.666-3.351,3.362-5.042,5.027-1.024,1.009-1.7,1.012-2.7.038-.758-.734-1.512-1.473-2.225-2.248a1.378,1.378,0,0,1-.045-2.108,1.409,1.409,0,0,1,2.114.117C577.54,449.293,578.021,449.742,578.626,450.313Z" transform="translate(-567.078 -394.797)"/></g></g><ellipse cx="49" cy="6" rx="49" ry="6" transform="translate(0 102.841)" fill="#f6f6f6"/></svg>