<svg xmlns="http://www.w3.org/2000/svg" width="98" height="116.901" viewBox="0 0 98 116.901"><g transform="matrix(0.978, -0.208, 0.208, 0.978, -594.397, -113.677)"><g transform="translate(558.498 250.975)"><path d="M601.754,321.067H589.5c0,1.156-.017,2.266,0,3.374a1.508,1.508,0,0,1-1.7,1.758q-11.858,0-23.716,0c-1.076,0-1.743-.513-1.751-1.6-.015-2.019-.05-4.047.109-6.057a9.675,9.675,0,0,1,4.812-7.688c.188-.119.368-.253.549-.385.033-.024.048-.073.136-.213a9.37,9.37,0,0,1-.7-7.577,8.918,8.918,0,0,1,3.532-4.63,9.156,9.156,0,0,1,11.023.526c2.61,2.187,4.763,6.422,2.1,11.8a10.845,10.845,0,0,1,4.911,5.47c.79,2.177.809,2.17,3.187,2.17h2.13v-2.122c0-5.077-.042-10.155.03-15.231a3.558,3.558,0,0,0-1.277-2.9c-3.113-2.915-6.16-5.9-9.225-8.869a4.067,4.067,0,0,1-1.061-1.2c-.635-1.6-1.857-1.82-3.342-1.672a11.033,11.033,0,0,1-2.153-.018c-.881-.086-1.536-.643-1.289-1.511a2.12,2.12,0,0,1,1.368-1.279,21.908,21.908,0,0,1,3.608-.06c.082-4.107,1.882-7.064,5.824-8.725a8.929,8.929,0,0,0-4.8-4.444c-.236-.105-.718.2-1.024.412a10.7,10.7,0,0,1-12.71-.083,1.647,1.647,0,0,0-1.4-.086,8.737,8.737,0,0,0-5.2,8.152c-.034,1.523-.006,3.047-.006,4.771,1.045,0,2.015.017,2.984,0,1.01-.023,1.7.374,1.7,1.442s-.734,1.449-1.72,1.446c-1.437,0-2.874,0-4.312,0-.959,0-1.594-.477-1.6-1.437-.012-2.558-.1-5.132.135-7.672a11.239,11.239,0,0,1,5.833-8.877c.3-.181.585-.394.867-.585-2.609-5.982-1.7-10.933,2.577-14.233a10.689,10.689,0,0,1,13.334.171c4.151,3.374,5.006,8.407,2.512,13.713a41.525,41.525,0,0,1,4.736,4.8c.928,1.287,1.661,2.221,3.356,2.514,1.294.224,2.46,1.184,3.814,1.884A8.856,8.856,0,0,1,602.282,274a.79.79,0,0,0,.631-.358,12.684,12.684,0,0,1,5.935-6.164c-2.654-5.822-1.783-10.782,2.437-14.161a10.712,10.712,0,0,1,13.235-.106c4.282,3.291,5.2,8.279,2.582,14.247.394.26.8.535,1.206.794a11.676,11.676,0,0,1,5.643,10c.076,1.974,0,3.953.022,5.93.012,1.21-.509,1.858-1.761,1.852-1.617-.008-3.234,0-4.851,0-.978,0-1.731-.352-1.727-1.433,0-1.053.7-1.467,1.707-1.453,1.159.015,2.319,0,3.869,0a73.353,73.353,0,0,0-.759-7.672c-.52-2.584-2.481-4.2-4.781-5.32a1.541,1.541,0,0,0-1.284.148c-4.321,2.878-8.468,2.865-12.93-.06a1.378,1.378,0,0,0-1.057-.179,8.862,8.862,0,0,0-4.614,4.573,24.712,24.712,0,0,1,3.246,3.763,24.336,24.336,0,0,1,1.541,4.745c1.054,0,2.348.039,3.638-.012,1.067-.042,1.851.342,1.857,1.439a1.413,1.413,0,0,1-1.741,1.435,7.2,7.2,0,0,0-7.24,3.02c-2.7,3.374-6.171,6.124-9.271,9.181a2.355,2.355,0,0,0-.694,1.473c-.047,5.84-.03,11.681-.026,17.522,0,.215.04.431.069.724h4.7a10.238,10.238,0,0,1,5.448-7.464c-1.945-5.86-1.014-9.779,2.884-12.437a9.162,9.162,0,0,1,11.02.568c3.417,2.913,4.2,7.145,2.083,11.712.359.263.733.552,1.122.818a9.8,9.8,0,0,1,4.466,8.307c.037,1.662-.017,3.325.015,4.987.023,1.179-.519,1.774-1.681,1.775q-11.858.009-23.716,0c-1.243,0-1.784-.642-1.756-1.859C601.774,323.275,601.754,322.209,601.754,321.067Zm-6.28-24.793c1.208-1.146,2.293-2.15,3.349-3.183,2.4-2.351,4.905-4.617,7.157-7.107a5.351,5.351,0,0,0-.466-7.432,5.578,5.578,0,0,0-7.364-.386c-2.6,2.05-2.6,2.05-5.266.008a5.613,5.613,0,0,0-7.474.461,5.415,5.415,0,0,0-.29,7.451C588.436,289.546,591.945,292.821,595.475,296.274Zm-13.216-34.51a7.764,7.764,0,1,0-7.851,7.694A7.713,7.713,0,0,0,582.259,261.764Zm27.951-.035a7.764,7.764,0,1,0,7.76-7.775A7.729,7.729,0,0,0,610.21,261.729ZM586.53,323.137c0-1.35.038-2.558-.008-3.762a7.087,7.087,0,0,0-3.589-6.1,1.53,1.53,0,0,0-1.92-.01,8.822,8.822,0,0,1-10.121.033,1.609,1.609,0,0,0-2.025.025c-2.962,1.848-4.06,4.526-3.408,9.813Zm39.388,0c0-1.335.026-2.542-.005-3.747a7.079,7.079,0,0,0-3.677-6.183,1.466,1.466,0,0,0-1.81.058,8.846,8.846,0,0,1-10.123.034,1.608,1.608,0,0,0-2.04.017c-3.032,1.979-4.021,4.484-3.344,9.821ZM575.93,311.893a6.245,6.245,0,1,0-6.233-6.243A6.27,6.27,0,0,0,575.93,311.893Zm39.352-12.481a6.241,6.241,0,0,0,.039,12.482,6.241,6.241,0,1,0-.039-12.482Z" transform="translate(-558.498 -250.975)"/><path d="M601.043,372.24c-.566.357-1.1.945-1.7,1.016a1.251,1.251,0,0,1-1.367-1.447c.036-.866.613-1.5,1.479-1.317.593.128,1.085.728,1.622,1.117Z" transform="translate(-587.335 -338.264)"/></g></g><ellipse cx="49" cy="6" rx="49" ry="6" transform="translate(0 104.901)" fill="#f6f6f6"/></svg>