<svg xmlns="http://www.w3.org/2000/svg" width="98" height="95.963" viewBox="0 0 98 95.963"><g transform="translate(24.232 0) rotate(13)"><g transform="translate(3.245 0.467)"><path d="M66.38,368.312a.952.952,0,0,0-.952.952v.641a.952.952,0,1,0,1.9,0v-.641A.952.952,0,0,0,66.38,368.312Z" transform="translate(-60.37 -322.038)"/><path d="M66.38,442.881a.952.952,0,0,0-.952.952v.641a.952.952,0,0,0,1.9,0v-.641A.952.952,0,0,0,66.38,442.881Z" transform="translate(-60.37 -387.143)"/><path d="M90.989,382.329a.948.948,0,0,0,.673-.278l.453-.453a.952.952,0,0,0-1.345-1.347l-.453.453a.952.952,0,0,0,.673,1.625Z" transform="translate(-81.856 -332.218)"/><path d="M37.979,432.978l-.453.453a.952.952,0,1,0,1.345,1.347l.453-.453a.952.952,0,1,0-1.345-1.347Z" transform="translate(-35.765 -378.254)"/><path d="M101.822,408.12h-.641a.952.952,0,1,0,0,1.9h.641a.952.952,0,1,0,0-1.9Z" transform="translate(-90.755 -356.794)"/><path d="M28.117,409.072a.952.952,0,0,0-.952-.952h-.641a.952.952,0,1,0,0,1.9h.641A.952.952,0,0,0,28.117,409.072Z" transform="translate(-25.572 -356.794)"/><path d="M91.662,432.979a.952.952,0,0,0-1.345,1.347l.453.453a.952.952,0,0,0,1.345-1.347Z" transform="translate(-81.856 -378.255)"/><path d="M38.871,380.251a.952.952,0,0,0-1.345,1.347l.453.453a.952.952,0,0,0,1.345-1.347Z" transform="translate(-35.765 -332.218)"/><path d="M413.694,3.677a.952.952,0,0,0-.952.952v.64a.952.952,0,0,0,1.9,0v-.64A.952.952,0,0,0,413.694,3.677Z" transform="translate(-363.608 -3.677)"/><path d="M413.694,78.245a.952.952,0,0,0-.952.952v.641a.952.952,0,0,0,1.9,0V79.2A.952.952,0,0,0,413.694,78.245Z" transform="translate(-363.608 -68.782)"/><path d="M438.3,17.693a.948.948,0,0,0,.673-.278l.453-.453a.952.952,0,1,0-1.345-1.347l-.453.453a.952.952,0,0,0,.673,1.625Z" transform="translate(-385.094 -13.857)"/><path d="M385.292,68.343l-.453.453a.952.952,0,0,0,1.345,1.347l.453-.453a.952.952,0,0,0-1.345-1.347Z" transform="translate(-339.002 -59.893)"/><path d="M449.136,43.485h-.641a.952.952,0,0,0,0,1.9h.641a.952.952,0,0,0,0-1.9Z" transform="translate(-393.992 -38.433)"/><path d="M375.431,44.437a.952.952,0,0,0-.952-.952h-.641a.952.952,0,0,0,0,1.9h.641A.952.952,0,0,0,375.431,44.437Z" transform="translate(-328.81 -38.433)"/><path d="M438.975,68.343a.952.952,0,0,0-1.345,1.347l.453.453a.952.952,0,1,0,1.345-1.347Z" transform="translate(-385.094 -59.894)"/><path d="M385.293,17.414a.952.952,0,1,0,1.345-1.347l-.453-.453a.952.952,0,0,0-1.345,1.347Z" transform="translate(-339.002 -13.857)"/></g><path d="M206.324.411l2.087,3.817a.79.79,0,0,0,.314.314l3.817,2.087a.79.79,0,0,1,0,1.385L208.725,10.1a.789.789,0,0,0-.314.314l-2.087,3.817a.79.79,0,0,1-1.385,0l-2.088-3.817a.789.789,0,0,0-.314-.314L198.72,8.014a.79.79,0,0,1,0-1.385l3.817-2.087a.789.789,0,0,0,.314-.314L204.938.411a.79.79,0,0,1,1.385,0Z" transform="translate(-173.143 0)"/><path d="M251.677,6.628l-3.817-2.087a.789.789,0,0,1-.314-.314L245.459.41a.79.79,0,0,0-1.385,0l-.94,1.719.642,1.173a4.387,4.387,0,0,0,1.744,1.744,2.592,2.592,0,0,1,0,4.549,4.387,4.387,0,0,0-1.744,1.744l-.642,1.173.94,1.719a.79.79,0,0,0,1.385,0l2.087-3.817a.789.789,0,0,1,.314-.314l3.817-2.087A.79.79,0,0,0,251.677,6.628Z" transform="translate(-212.279 0)"/><path d="M8.014,88.033,10.1,91.849a.789.789,0,0,0,.314.314l3.817,2.087a.79.79,0,0,1,0,1.385l-3.816,2.087a.789.789,0,0,0-.314.314l-2.087,3.817a.79.79,0,0,1-1.385,0L4.541,98.037a.789.789,0,0,0-.314-.314L.41,95.636a.79.79,0,0,1,0-1.385l3.817-2.087a.79.79,0,0,0,.314-.314l2.087-3.817a.79.79,0,0,1,1.385,0Z" transform="translate(0 -76.502)"/><path d="M53.368,94.25l-3.817-2.087a.789.789,0,0,1-.314-.314L47.15,88.032a.789.789,0,0,0-1.385,0l-.94,1.719.642,1.173a4.387,4.387,0,0,0,1.744,1.744,2.592,2.592,0,0,1,0,4.549,4.387,4.387,0,0,0-1.744,1.744l-.642,1.173.94,1.719a.789.789,0,0,0,1.385,0l2.087-3.817a.789.789,0,0,1,.314-.314l3.817-2.087a.79.79,0,0,0,0-1.386Z" transform="translate(-39.136 -76.502)"/><path d="M404.634,129.657l2.087,3.817a.789.789,0,0,0,.314.314l3.817,2.087a.79.79,0,0,1,0,1.385l-3.817,2.087a.789.789,0,0,0-.314.314l-2.087,3.817a.79.79,0,0,1-1.385,0l-2.087-3.817a.789.789,0,0,0-.314-.314l-3.817-2.087a.79.79,0,0,1,0-1.385l3.817-2.087a.79.79,0,0,0,.314-.314l2.087-3.817A.79.79,0,0,1,404.634,129.657Z" transform="translate(-346.286 -112.845)"/><path d="M449.989,135.876l-3.817-2.087a.789.789,0,0,1-.314-.314l-2.087-3.817a.789.789,0,0,0-1.385,0l-.94,1.719.642,1.173a4.388,4.388,0,0,0,1.744,1.744,2.592,2.592,0,0,1,0,4.549,4.388,4.388,0,0,0-1.744,1.744l-.642,1.173.94,1.719a.789.789,0,0,0,1.385,0l2.087-3.817a.789.789,0,0,1,.314-.314l3.817-2.087A.79.79,0,0,0,449.989,135.876Z" transform="translate(-385.424 -112.845)"/><g transform="translate(12.622 20.754)"><path d="M301.5,280.664c.147-3.114,1.261-15.191,9.64-32.157a2.414,2.414,0,1,1,4.18,2.395A111.579,111.579,0,0,0,301.7,280.695.1.1,0,0,1,301.5,280.664Z" transform="translate(-275.861 -236.545)"/><path d="M114.632,236.627c-.4-5.305-2.472-26.126-10.81-38.828a2.376,2.376,0,1,0-3.917,2.687c2.916,4.027,9.69,15.074,14.533,36.169A.1.1,0,0,0,114.632,236.627Z" transform="translate(-99.455 -192.51)"/><path d="M239.3,207.668l-2.2-41.6a2.4,2.4,0,1,1,4.792.011l-2.394,41.591A.1.1,0,0,1,239.3,207.668Z" transform="translate(-219.623 -163.54)"/></g></g><ellipse cx="49" cy="6" rx="49" ry="6" transform="translate(0 83.963)" fill="#f6f6f6"/></svg>