<svg xmlns="http://www.w3.org/2000/svg" width="84.93" height="76.142" viewBox="0 0 84.93 76.142"><g transform="matrix(0.978, -0.208, 0.208, 0.978, -32.643, 24.933)"><g transform="translate(47.037 0)"><g transform="translate(0 0)"><path d="M89.789,8.169H84.148V5.646c0-.816-.891-1.188-1.707-1.188H78.062A6.639,6.639,0,0,0,71.456,0,6.754,6.754,0,0,0,64.85,4.458h-4.3c-.816,0-1.633.371-1.633,1.188V8.169H53.272a6.309,6.309,0,0,0-6.235,6.012V56.71c0,3.266,2.969,5.641,6.235,5.641H89.789c3.266,0,6.235-2.375,6.235-5.641V14.181A6.309,6.309,0,0,0,89.789,8.169ZM61.881,7.427h4.082a1.633,1.633,0,0,0,1.41-1.336,4.3,4.3,0,0,1,4.082-3.34,4.23,4.23,0,0,1,4.008,3.34,1.633,1.633,0,0,0,1.484,1.336h4.231v5.938h-19.3ZM93.054,56.71c0,1.633-1.633,2.672-3.266,2.672H53.272c-1.633,0-3.266-1.039-3.266-2.672V14.181a3.34,3.34,0,0,1,3.266-3.043h5.641v3.785a1.559,1.559,0,0,0,1.633,1.41h21.9a1.633,1.633,0,0,0,1.707-1.41V11.138h5.641a3.34,3.34,0,0,1,3.266,3.043V56.71Z" transform="translate(-47.037 0)" fill="#e3db00"/><path d="M110.723,230.774a1.484,1.484,0,0,0-2.078-.074l-4.75,4.527-2-2.078a1.485,1.485,0,0,0-2.078-.074,1.559,1.559,0,0,0,0,2.152l3.043,3.117a1.336,1.336,0,0,0,1.039.445,1.484,1.484,0,0,0,1.039-.445l5.789-5.492a1.41,1.41,0,0,0,.086-1.992Q110.768,230.815,110.723,230.774Z" transform="translate(-91.945 -197.592)" fill="#e3db00"/><path d="M217.1,256.034H200.032a1.484,1.484,0,1,0,0,2.969H217.1a1.484,1.484,0,1,0,0-2.969Z" transform="translate(-177.024 -219.661)" fill="#e3db00"/><path d="M110.723,147.182a1.484,1.484,0,0,0-2.078-.074l-4.75,4.527-2-2.078a1.484,1.484,0,0,0-2.078-.074,1.559,1.559,0,0,0,0,2.152l3.043,3.117a1.336,1.336,0,0,0,1.039.445,1.484,1.484,0,0,0,1.039-.445l5.789-5.492a1.41,1.41,0,0,0,.086-1.992Q110.768,147.223,110.723,147.182Z" transform="translate(-91.945 -125.876)" fill="#e3db00"/><path d="M217.1,172.442H200.032a1.484,1.484,0,1,0,0,2.969H217.1a1.484,1.484,0,1,0,0-2.969Z" transform="translate(-177.024 -147.944)" fill="#e3db00"/><path d="M110.723,314.366a1.485,1.485,0,0,0-2.078-.074l-4.75,4.527-2-2.078a1.485,1.485,0,0,0-2.078-.074,1.559,1.559,0,0,0,0,2.152l3.043,3.117a1.336,1.336,0,0,0,1.039.445,1.484,1.484,0,0,0,1.039-.445l5.789-5.492a1.41,1.41,0,0,0,.086-1.992Q110.768,314.407,110.723,314.366Z" transform="translate(-91.945 -269.308)" fill="#e3db00"/><path d="M217.1,339.626H200.032a1.484,1.484,0,1,0,0,2.969H217.1a1.484,1.484,0,1,0,0-2.969Z" transform="translate(-177.024 -291.377)" fill="#e3db00"/></g></g></g><path d="M320.453,5.421h1.026V6.447a1.465,1.465,0,0,0,2.93,0V5.421h1.026a1.465,1.465,0,0,0,0-2.93h-1.026V1.465a1.465,1.465,0,0,0-2.93,0V2.491h-1.026a1.465,1.465,0,1,0,0,2.93Z" transform="translate(-251.335 3)" fill="#e3db00"/><path d="M320.453,5.421h1.026V6.447a1.465,1.465,0,0,0,2.93,0V5.421h1.026a1.465,1.465,0,0,0,0-2.93h-1.026V1.465a1.465,1.465,0,0,0-2.93,0V2.491h-1.026a1.465,1.465,0,1,0,0,2.93Z" transform="translate(-308.335)" fill="#e3db00"/><path d="M122.206,79.963a4.981,4.981,0,1,0-4.981-4.981A4.987,4.987,0,0,0,122.206,79.963Zm0-7.033a2.051,2.051,0,1,1-2.051,2.051A2.053,2.053,0,0,1,122.206,72.93Z" transform="translate(-111.132 -9.744)" fill="#e3db00"/><path d="M493.453,164a1.466,1.466,0,1,0,1.036.429A1.476,1.476,0,0,0,493.453,164Z" transform="translate(-418.988 -133.972)" fill="#e3db00"/><path d="M493.453,164a1.466,1.466,0,1,0,1.036.429A1.476,1.476,0,0,0,493.453,164Z" transform="translate(-409.988 -116.972)" fill="#e3db00"/><path d="M493.453,164a1.466,1.466,0,1,0,1.036.429A1.476,1.476,0,0,0,493.453,164Z" transform="translate(-491.988 -141.972)" fill="#e3db00"/></svg>