<svg xmlns="http://www.w3.org/2000/svg" width="46" height="46" viewBox="0 0 46 46"><circle cx="23" cy="23" r="23" fill="#f7f7f7"/><g transform="translate(16.746 12.921)"><path d="M53.989-547.967c0-1.675-.007-3.35.006-5.025,0-.292-.088-.381-.373-.37-.507.019-1.016-.005-1.524.009-.251.007-.349-.069-.345-.333.013-1.028.013-2.056.005-3.084,0-.215.077-.284.283-.28.473.009.947,0,1.42,0,.534,0,.532,0,.531-.552,0-.716-.049-1.437.015-2.147a8.1,8.1,0,0,1,.385-1.994,3.436,3.436,0,0,1,2.82-2.232,6.869,6.869,0,0,1,1.132-.137c1.039-.022,2.079-.011,3.118-.022.2,0,.294.053.292.271q-.013,1.56-.005,3.119c0,.209-.075.288-.283.284-.45-.009-.9,0-1.351,0-.2,0-.393,0-.588.019-.766.077-1.059.34-1.109,1.106-.045.679-.014,1.362-.022,2.044,0,.242.151.242.324.242.878,0,1.756.015,2.633,0,.327-.007.423.093.383.417q-.183,1.477-.323,2.96c-.025.262-.142.324-.378.321-.751-.009-1.5.011-2.252-.01-.308-.009-.389.089-.388.392.01,3.188.007,6.376.006,9.564,0,.82,0,.829-.817.835-1.074.008-2.148-.01-3.222,0-.283,0-.377-.081-.374-.372.013-1.675.006-3.35.006-5.025Z" transform="translate(-51.753 564.132)" fill="#1461ad"/></g></svg>