<svg xmlns="http://www.w3.org/2000/svg" width="46" height="46" viewBox="0 0 46 46"><circle cx="23" cy="23" r="23" fill="#f7f7f7"/><g transform="translate(12.945 12.702)"><path d="M837.1-401.819l-2.984,2.856a6.318,6.318,0,0,0-3-1.541,6.709,6.709,0,0,0-7.937,6.168,6.651,6.651,0,0,0,5.427,7.173c3.425.622,6.334-1.033,7.226-4.085.03-.1.04-.214.074-.4h-6.024v-3.715h9.289c.816,0,.874,0,.927.792.274,4.121-.875,7.672-4.524,9.952a10.841,10.841,0,0,1-16.2-6.577,10.726,10.726,0,0,1,8.736-13.273,10.249,10.249,0,0,1,8.412,2.22c.1.082.192.176.295.256A3.352,3.352,0,0,0,837.1-401.819Z" transform="translate(-819.028 404.622)" fill="#d54545"/></g></svg>