<svg xmlns="http://www.w3.org/2000/svg" width="63.785" height="79.759" viewBox="0 0 63.785 79.759"><path d="M320.486,5.543h1.049V6.592a1.5,1.5,0,1,0,3,0V5.543h1.049a1.5,1.5,0,0,0,0-3h-1.049V1.5a1.5,1.5,0,1,0-3,0V2.547h-1.049a1.5,1.5,0,0,0,0,3Z" transform="translate(-272.87 9.09)" fill="#e3db00"/><path d="M320.486,5.543h1.049V6.592a1.5,1.5,0,1,0,3,0V5.543h1.049a1.5,1.5,0,0,0,0-3h-1.049V1.5a1.5,1.5,0,1,0-3,0V2.547h-1.049a1.5,1.5,0,0,0,0,3Z" transform="translate(-307.818)" fill="#e3db00"/><path d="M122.319,80.188a5.094,5.094,0,1,0-5.094-5.094A5.1,5.1,0,0,0,122.319,80.188Zm0-7.191a2.1,2.1,0,1,1-2.1,2.1A2.1,2.1,0,0,1,122.319,73Z" transform="translate(-102.719 -0.429)" fill="#e3db00"/><path d="M493.486,164a1.5,1.5,0,1,0,1.059.439A1.51,1.51,0,0,0,493.486,164Z" transform="translate(-440.403 -127.271)" fill="#e3db00"/><path d="M493.486,164a1.5,1.5,0,1,0,1.059.439A1.51,1.51,0,0,0,493.486,164Z" transform="translate(-431.199 -109.887)" fill="#e3db00"/><path d="M492.92,164a.932.932,0,1,0,.659.273A.939.939,0,0,0,492.92,164Z" transform="translate(-472.559 -125.683)" fill="#e3db00"/><path d="M492.92,164a.932.932,0,1,0,.659.273A.939.939,0,0,0,492.92,164Z" transform="translate(-472.559 -137.954)" fill="#e3db00"/><path d="M492.92,164a.932.932,0,1,0,.659.273A.939.939,0,0,0,492.92,164Z" transform="translate(-478.694 -145.112)" fill="#e3db00"/><path d="M492.92,164a.932.932,0,1,0,.659.273A.939.939,0,0,0,492.92,164Z" transform="translate(-491.988 -127.728)" fill="#e3db00"/><path d="M492.92,164a.932.932,0,1,0,.659.273A.939.939,0,0,0,492.92,164Z" transform="translate(-482.785 -124.66)" fill="#e3db00"/><g transform="translate(0.529 20.472)"><g transform="translate(0 0)"><path d="M803.247-284.118a3.551,3.551,0,0,0,3.823-3.894,6.5,6.5,0,0,0-.588-1.823q-6.917-14.481-13.866-28.947c-.725-1.512-1.329-1.622-2.5-.452q-9.077,9.074-18.15,18.151c-1.127,1.128-1.018,1.756.426,2.449q14.514,6.96,29.036,13.9A12.831,12.831,0,0,0,803.247-284.118ZM785.124-294.89a8.727,8.727,0,0,0,1.863-.878c.291-.24.555-.923.415-1.175a1.767,1.767,0,0,0-1.2-.619,2.112,2.112,0,0,0-1.082.356,5.139,5.139,0,0,1-5.409-.213c-1.759-1.076-3.711-1.838-5.655-2.775,1.25-1.24,2.433-2.375,3.567-3.557a1.828,1.828,0,0,1,1.507-.624,21.106,21.106,0,0,0,8.486-1.493c2.434-.975,4.8-2.13,7.281-3.248l2.268,4.726c-1,.767-1.92,1.471-2.84,2.17-.565.429-.811,1.023-.382,1.586a1.092,1.092,0,0,0,1.7.08c.773-.612,1.58-1.181,2.458-1.831.959,1.97,1.887,3.83,2.752,5.718a.942.942,0,0,1-.3.833c-2.141,1.589-4.308,3.143-6.485,4.684a.94.94,0,0,1-.761.159C790.633-292.237,787.98-293.52,785.124-294.89Zm-4.61-11.576,10.617-10.512,2.742,5.725A29.771,29.771,0,0,1,780.514-306.466Zm21.51,12.227c.946,1.978,1.912,3.867,2.737,5.815a1.955,1.955,0,0,1-.184,1.661,1.634,1.634,0,0,1-1.508.388c-2.406-1.036-4.756-2.2-7.176-3.345Z" transform="translate(-753.052 338.194)" fill="#e3db00"/><path d="M956.749-275.886a18.183,18.183,0,0,0-2.872-1.5,3.071,3.071,0,0,0-3.488,1.409,3.23,3.23,0,0,0,.018,3.8c1.84,2.35,4.289,3.852,7.647,3.1a6.752,6.752,0,0,0,3.666-2.345c.293-.338.549-.707.823-1.062l.086.369a15.233,15.233,0,0,0,2.966,1.336,2.936,2.936,0,0,0,3.24-1.579,3.121,3.121,0,0,0-.115-3.629c-3.195-4.415-8.464-4.325-11.343-.78C957.095-276.419,956.856-276.038,956.749-275.886Zm-1.512,4.745c1.567-1.71,3.081-3.508,4.756-5.14,1.168-1.138,2.685-1.105,4.221-.683-1.59,1.618-3.1,3.193-4.648,4.718A4.29,4.29,0,0,1,955.237-271.141Zm-.253-3.118c-.457.408-.776.719-1.122,1-.508.408-1.164.533-1.533,0a1.855,1.855,0,0,1-.147-1.532,1.054,1.054,0,0,1,1.549-.473A9.452,9.452,0,0,1,954.983-274.259Zm9.2.3c.407-.374.689-.809,1.075-.944a2.111,2.111,0,0,1,1.544-.063c.58.351.514,1.062.114,1.614a1.138,1.138,0,0,1-1.6.372A8.122,8.122,0,0,1,964.184-273.957Z" transform="translate(-949.781 305.385)" fill="#e3db00"/><path d="M869.032-401.216c.519-.5.972-.954,1.441-1.389,3-2.792,3.049-7.953-1.409-11.012a3.29,3.29,0,0,0-4.41.83,3.394,3.394,0,0,0,.225,4.488c.221.231.466.439,1,.936-.529.391-1.049.712-1.494,1.115-3.435,3.112-3.055,8.363,1.349,11.234a3.27,3.27,0,0,0,4.191-.741,3.425,3.425,0,0,0,.087-4.357C869.726-400.46,869.416-400.784,869.032-401.216Zm-4.636,1.288a4.14,4.14,0,0,1,.752-4c1.624-1.712,3.416-3.264,5.118-4.866a3.954,3.954,0,0,1-.726,3.987C867.9-403.1,866.11-401.537,864.4-399.928Zm2.778-9.116c-.619-.581-1.4-1.074-1.025-1.994a1.76,1.76,0,0,1,1.18-.881,1.312,1.312,0,0,1,1.062.692C868.781-410.137,867.8-409.7,867.174-409.044Zm.313,9.441c1.231,1.012,1.488,1.812.782,2.479a1.222,1.222,0,0,1-1.734.14C865.834-397.56,866.142-398.39,867.487-399.6Z" transform="translate(-836.08 414.141)" fill="#e3db00"/><path d="M979.505-376.386c.024-2.019-2.714-4.744-4.732-4.69a2.324,2.324,0,0,0-.933.176,7.031,7.031,0,0,0-3.45,3.464,2.648,2.648,0,0,0,.418,2.818,14.075,14.075,0,0,0,2.346,2.252,3.118,3.118,0,0,0,1.692.547C976.747-371.749,979.483-374.483,979.505-376.386Zm-4.831-2.818a10.66,10.66,0,0,1,1.216.82c2,1.861,1.992,1.913.078,3.8-.933.919-1.307.919-2.241,0-.183-.18-.362-.363-.544-.544-.475-.476-1.177-1.011-.717-1.7A19.628,19.628,0,0,1,974.675-379.2Z" transform="translate(-963.86 387.46)" fill="#e3db00"/><path d="M851.268-215.751c-.26.407-.685.793-.742,1.227a.9.9,0,0,0,1.034.986.919.919,0,0,0,.969-1.064c-.081-.427-.545-.782-.838-1.169Z" transform="translate(-813.805 254.066)" fill="#e3db00"/></g></g></svg>