<svg xmlns="http://www.w3.org/2000/svg" width="265.967" height="79.451" viewBox="0 0 265.967 79.451"><path d="M104.765,71.221V93.478H98.984V32.229h5.781V58.8h.171c2.847-5.694,8.542-9.059,15.96-9.059,11.388,0,20.186,6.9,20.186,21.48V93.478H135.3V71.221c0-10.524-6.039-16.132-15.27-16.132-9.144,0-15.269,5.779-15.269,16.132" transform="translate(-98.984 -32.229)" fill="#e3db00"/><path d="M203.864,97.152h-5.349V87.059h-.173c-2.847,6.815-9.575,11.215-18.2,11.215-11.99,0-22.084-8.54-22.084-22.429,0-12.939,9.489-22.429,22.947-22.429s22.861,9.23,22.861,22.688Zm-5.78-21.308c0-9.835-6.9-17.081-17.081-17.081s-17.081,7.246-17.081,17.081,6.9,17.081,17.081,17.081,17.081-7.247,17.081-17.081" transform="translate(-103.807 -35.903)" fill="#e3db00"/><path d="M223.7,115.354V76.1c0-13.544,9.4-22.688,22.86-22.688s22.947,9.49,22.947,22.429c0,13.889-10.18,22.429-22.085,22.429-8.195,0-14.665-3.8-17.77-9.921h-.173v27Zm39.941-39.51c0-9.835-6.9-17.081-17.081-17.081-10.265,0-17.081,7.246-17.081,17.081s6.815,17.081,17.081,17.081c10.179,0,17.081-7.247,17.081-17.081" transform="translate(-109.167 -35.903)" fill="#e3db00"/><path d="M287.264,115.354V76.1c0-13.544,9.4-22.688,22.86-22.688s22.948,9.49,22.948,22.429c0,13.889-10.18,22.429-22.085,22.429-8.195,0-14.665-3.8-17.771-9.921h-.172v27Zm39.941-39.51c0-9.835-6.9-17.081-17.081-17.081-10.265,0-17.08,7.246-17.08,17.081s6.814,17.081,17.08,17.081c10.18,0,17.081-7.247,17.081-17.081" transform="translate(-114.357 -35.903)" fill="#e3db00"/><path d="M380.93,72.221v-.6c0-8.885-4.917-12.853-12.163-12.853-7.333,0-12.164,3.968-12.164,12.853V97.151h-5.78V71.616c0-12.249,7.333-18.2,17.943-18.2s17.858,5.952,17.858,18.288v.517Z" transform="translate(-120.657 -35.903)" fill="#e3db00"/></svg>