<svg xmlns="http://www.w3.org/2000/svg" width="52.329" height="48.992" viewBox="0 0 52.329 48.992"><g transform="translate(1860.104 -2871.631)"><path d="M297.109,267.051a6.008,6.008,0,1,0,6.783,5.116A6.009,6.009,0,0,0,297.109,267.051Z" transform="translate(-2151.53 2610.283)" fill="#000200" stroke="#707070" stroke-width="1"/><path d="M359.857,258.259a6.008,6.008,0,1,0,6.784,5.115A6.009,6.009,0,0,0,359.857,258.259Z" transform="translate(-2177.608 2613.937)" fill="#000200" stroke="#707070" stroke-width="1"/><path d="M359.427,261.863a1.783,1.783,0,1,0,2.013,1.517A1.782,1.782,0,0,0,359.427,261.863Z" transform="translate(-2178.943 2612.422)" fill="#474747" stroke="#707070" stroke-width="1"/><path d="M296.679,270.656a1.782,1.782,0,1,0,2.013,1.517A1.781,1.781,0,0,0,296.679,270.656Z" transform="translate(-2152.865 2608.768)" fill="#474747" stroke="#707070" stroke-width="1"/><path d="M341.52,288.227l-44.736,6.268a2.341,2.341,0,0,0-1.994,2.645,24.929,24.929,0,1,0,49.375-6.919A2.341,2.341,0,0,0,341.52,288.227Z" transform="translate(-2152.708 2601.468)" fill="#000200" stroke="#707070" stroke-width="1"/><path d="M325.545,314.93a59.71,59.71,0,0,0-19.667,6.648,24.9,24.9,0,0,0,40.4-5.662A59.7,59.7,0,0,0,325.545,314.93Z" transform="translate(-2157.326 2590.568)" fill="#b40300" stroke="#707070" stroke-width="1"/></g></svg>