<svg xmlns="http://www.w3.org/2000/svg" width="22.27" height="23.561" viewBox="0 0 22.27 23.561"><g transform="translate(-423.238 -115.389)"><g transform="translate(423.238 115.389)"><path d="M423.241,130.929c0-2.214,0-4.428,0-6.642a1.4,1.4,0,0,1,.546-1.155l4.584-3.725q2.08-1.691,4.162-3.38a2.968,2.968,0,0,1,2.466-.583,2.785,2.785,0,0,1,1.28.623q2.655,2.159,5.308,4.32,1.682,1.369,3.365,2.736a1.416,1.416,0,0,1,.559,1.171q-.009,6.653,0,13.306a1.358,1.358,0,0,1-.866,1.287,1.11,1.11,0,0,1-.408.054c-1.981,0-3.962-.011-5.943.009a1.33,1.33,0,0,1-1.275-1.3c.021-2.717.009-5.433.008-8.15,0-.393,0-.392-.382-.392h-4.589c-.317,0-.331.014-.331.333,0,2.709-.006,5.419,0,8.128a1.272,1.272,0,0,1-.792,1.28,1.059,1.059,0,0,1-.421.084c-2.017.005-4.035,0-6.052.008a1.327,1.327,0,0,1-1.223-1.265C423.246,135.43,423.241,133.18,423.241,130.929Z" transform="translate(-423.238 -115.389)" fill="#e3db00"/></g></g></svg>