<svg xmlns="http://www.w3.org/2000/svg" width="98" height="114.468" viewBox="0 0 98 114.468"><ellipse cx="49" cy="6" rx="49" ry="6" transform="translate(0 102.468)" fill="#f6f6f6"/><g transform="translate(-84.188 -88.25) rotate(-13)"><g transform="translate(58.961 122.939)"><path d="M97.6,146.635c-5.958-7.844-6.642-15.159,1.418-21.4,4.673-3.616,11.577-2.819,16.121,1.343a12.572,12.572,0,0,1,4.164,9.879c-.079,3.808-1.992,6.909-4.446,9.969a10.933,10.933,0,0,0,1.338.2c3.241.012,6.483-.013,9.724.02a1.536,1.536,0,0,0,1.728-1.191,6.393,6.393,0,0,1,6.936-4c3.43.664,5.587,3.059,5.593,6.376q.035,18.327,0,36.655c-.009,3.762-2.6,6.35-6.487,6.631-.347.025-.7.013-1.047.013q-33.06,0-66.121,0c-3.538,0-5.972-1.425-6.971-4.307A11.959,11.959,0,0,1,58.992,183q-.062-16.756,0-33.513a12.736,12.736,0,0,1,.54-3.821,6.3,6.3,0,0,1,6.049-4.324c2.655.1,4.872,1.245,5.9,3.842a2.073,2.073,0,0,0,2.341,1.47c7.23-.044,14.461-.022,21.691-.022ZM74.943,188.141c2.456.7,3.048.43,4.115-1.512A31.881,31.881,0,0,0,82.7,171.843c.034-1.229.562-1.673,1.748-1.653,2.492.042,4.986.012,7.479.013,2.259,0,2.5.218,2.5,2.449q.017,7.106,0,14.213c0,.948.068,1.584,1.338,1.6,1.289.014,1.322-.624,1.316-1.574q-.038-6.209,0-12.417c.018-2.756,1.541-4.26,4.262-4.266q5.385-.013,10.77,0c3.1,0,4.568,1.461,4.578,4.583.013,4.039.077,8.081-.034,12.117-.041,1.5.625,1.655,1.779,1.523,1.3-.149.848-1.157.872-1.854.082-2.368.856-3.234,3.213-3.349,1.095-.054,2.194-.041,3.29-.005.908.029,1.356-.225,1.353-1.264,0-1-.34-1.309-1.309-1.251a29.067,29.067,0,0,1-3.588-.01c-1.753-.113-2.825-.983-2.889-2.434-.083-1.891-.085-3.791,0-5.681a2.368,2.368,0,0,1,2.545-2.368c1.2-.033,2.395-.043,3.59,0,1.024.039,1.667-.07,1.663-1.411,0-1.362-.758-1.261-1.636-1.234-.548.017-1.1.013-1.645,0-3.138-.077-4.553-1.493-4.568-4.625-.019-3.94,0-7.88-.009-11.819,0-.579-.069-1.158-.109-1.778H116.8c-.039.357-.1.645-.1.933q-.01,6.059-.006,12.118c0,3.743-1.414,5.172-5.118,5.174q-9.2.006-18.4,0c-2.094,0-4.189.032-6.283-.011a3.973,3.973,0,0,1-4.142-3.337c-.426-3.3.1-4.234,2.844-5.149,1.275-.425,2.54-.878,3.809-1.322,3.923-1.373,5.578-4.217,4.849-8.393H91.868c.1,3.649-1.833,5.583-5.127,6.433-1.154.3-2.279.71-3.413,1.082-2.925.96-3.249,1.413-3.251,4.49,0,.5.013,1-.005,1.5-.119,3.225-1.642,4.695-4.869,4.71-.6,0-1.2.042-1.794-.009-.876-.076-1.269.188-1.233,1.157.034.9.07,1.552,1.256,1.5,1.642-.072,3.29,0,4.936-.023,1.047-.015,1.653.457,1.595,1.5-.093,1.687-.194,3.382-.453,5.049A29.114,29.114,0,0,1,74.943,188.141Zm-13.174-9.2c3.426-.961,3.167-1.389,7.658-.069.025-.564.068-1.089.068-1.614q.007-9.351,0-18.7c0-3.541.049-7.083-.018-10.622A3.851,3.851,0,0,0,63.9,144.4c-1.73.866-2.225,2.4-2.222,4.235q.026,14.662.007,29.324C61.69,178.249,61.735,178.539,61.768,178.944Zm75.67.117a3.853,3.853,0,0,0,.186-.733c0-10.023.013-20.046-.026-30.069a5.124,5.124,0,0,0-.557-2.285,3.694,3.694,0,0,0-4.323-1.816,3.651,3.651,0,0,0-2.863,3.706q-.023,15.11-.005,30.219a7.436,7.436,0,0,0,.165,1.007A7.373,7.373,0,0,1,137.438,179.061ZM106.055,153.4a5.038,5.038,0,0,0,.719-.607c2.688-3.584,5.426-7.134,8.027-10.78a9.839,9.839,0,0,0,1.427-8.841,9.992,9.992,0,0,0-8.529-7.405,9.843,9.843,0,0,0-10.091,4.463,9.662,9.662,0,0,0-.222,11.377C100.03,145.637,103.083,149.4,106.055,153.4Zm7.918,35.014c0-4.73-.038-9.212.022-13.692.019-1.458-.6-1.94-1.965-1.924-3.438.039-6.877,0-10.316.019-1.76.011-2.039.307-2.048,2.148-.018,3.439-.005,6.878-.005,10.317,0,3.132,0,3.132,3.106,3.132Zm0-39.063c-1.818-.294-2.131,1.15-2.744,2.043-.195.284.229,1.11.526,1.592a4.478,4.478,0,0,1,.745,4.076c-1.111,3.134-5.3,4.785-8.948,3.481-3.841-1.373-4.9-4.809-2.5-8.046a1.322,1.322,0,0,0,.268-1.017c-.714-1.977-1.941-2.547-4.132-1.968-.067.718-.159,1.456-.2,2.2-.25,4.264-2.532,6.988-6.433,8.458-1.3.49-2.623.936-3.964,1.3a1.573,1.573,0,0,0-1.325,2.044c.183,1.2.947,1.354,1.934,1.346,2.739-.02,5.477-.007,8.216-.007q8.366,0,16.732.007c.992,0,1.823-.122,1.823-1.389C113.97,158.791,113.971,154.116,113.971,149.353Zm-41.639.008v15.42a6.848,6.848,0,0,0,.716.068c4.358-.113,4.388.931,4.358-4.293-.019-3.257,1.235-4.89,4.387-5.908,1.843-.6,3.691-1.187,5.5-1.883,1.546-.6,1.99-1.538,1.767-3.4Zm12.961,23.531a34.9,34.9,0,0,1-4.09,15.436H91.756V172.892Zm-13.089.019c0,3.521.006,6.943,0,10.366,0,1.027.194,2.3-1.235,2.478-1.471.181-1.313-1.176-1.561-2.08a3.893,3.893,0,0,0-7.685,1.032,3.789,3.789,0,0,0,3.911,3.7,45.09,45.09,0,0,0,4.777-.038,2.492,2.492,0,0,0,1.768-.959,68.046,68.046,0,0,0,4.018-8.115,37.669,37.669,0,0,0,1.288-6.387Zm49.667-23.572V160.98c0,3.929,0,3.894,3.918,3.892,1.03,0,1.374-.281,1.361-1.34-.053-4.276-.02-8.553-.026-12.829,0-.432-.054-.864-.088-1.364Zm.238,36.469c-.568,2.49-.478,2.609,1.824,2.609,3.23,0,6.46.015,9.69,0a3.622,3.622,0,0,0,3.887-3.635,3.84,3.84,0,0,0-7.64-.759,1.794,1.794,0,0,1-2.174,1.81C125.825,185.748,123.948,185.808,122.11,185.808Zm-.24-12.987c0,1.486.044,2.768-.015,4.046-.042.929.344,1.229,1.225,1.209,5.041-.116,3.9.746,4.047-3.893.006-.2.071-.443-.018-.587-.179-.288-.437-.729-.679-.741C124.96,172.786,123.484,172.82,121.87,172.82Zm-12.815-18.565c-.4.494-.8.986-1.19,1.483-1.335,1.689-2.049,1.677-3.318-.022-.4-.536-.869-1.02-1.328-1.554-1.105,1.343-1.1,2.221-.133,3.121a5.13,5.13,0,0,0,6.332-.117C110.382,156.2,110.293,155.254,109.055,154.255Z" transform="translate(-58.961 -122.939)"/><path d="M201.7,140.8a6.537,6.537,0,1,1-6.713,6.36A6.584,6.584,0,0,1,201.7,140.8Zm3.752,6.466a3.943,3.943,0,0,0-3.939-3.841,3.889,3.889,0,0,0-3.869,4.034,3.953,3.953,0,0,0,3.985,3.8A4.036,4.036,0,0,0,205.452,147.263Z" transform="translate(-154.289 -135.453)"/></g></g></svg>