<svg xmlns="http://www.w3.org/2000/svg" width="75.012" height="75.012" viewBox="0 0 75.012 75.012"><path d="M69.993,56.535a1.465,1.465,0,0,0-2.072,2.072l.311.311a.74.74,0,0,1-.641,1.255l-15-2.41a1.466,1.466,0,0,0-1.539.784L44.191,72.079a.741.741,0,0,1-1.392-.221L40.459,56.87a1.465,1.465,0,0,0-1.221-1.221l-14.988-2.34a.74.74,0,0,1-.22-1.392L37.56,45.058a1.465,1.465,0,0,0,.784-1.539l-2.41-15a.74.74,0,0,1,1.255-.641L47.934,38.62a1.465,1.465,0,0,0,1.7.268l13.479-6.894a.74.74,0,0,1,1,1L57.219,46.47a1.465,1.465,0,0,0,.268,1.7l1.11,1.11a1.465,1.465,0,0,0,2.072-2.072l-.356-.356,6.408-12.53a3.671,3.671,0,0,0-4.94-4.939l-12.53,6.408L39.261,25.8a3.671,3.671,0,0,0-6.22,3.178l2.24,13.947L22.7,49.3A3.671,3.671,0,0,0,23.8,56.2l7.04,1.1L1.09,87.049a3.732,3.732,0,0,0,0,5.271l2.7,2.7a3.731,3.731,0,0,0,5.271,0L38.8,65.27l1.1,7.04a3.615,3.615,0,0,0,3.052,3.059,3.844,3.844,0,0,0,.6.048A3.606,3.606,0,0,0,46.8,73.4l6.374-12.578,13.947,2.24a3.671,3.671,0,0,0,3.178-6.22ZM18.767,81.165H11.118L20.2,72.081H27.85ZM6.986,92.945a.8.8,0,0,1-1.127,0l-2.7-2.7a.8.8,0,0,1,0-1.127l5.026-5.026h7.648ZM30.78,69.151H23.132L34.421,57.862l3.308.516.516,3.307Z" transform="translate(0 -21.095)" fill="#e3db00"/><path d="M386.1,321.373h-1.026v-1.026a1.465,1.465,0,1,0-2.93,0v1.026H381.12a1.465,1.465,0,1,0,0,2.93h1.026v1.026a1.465,1.465,0,0,0,2.93,0V324.3H386.1a1.465,1.465,0,0,0,0-2.93Z" transform="translate(-324.031 -272.162)" fill="#e3db00"/><path d="M320.453,5.421h1.026V6.447a1.465,1.465,0,0,0,2.93,0V5.421h1.026a1.465,1.465,0,0,0,0-2.93h-1.026V1.465a1.465,1.465,0,0,0-2.93,0V2.491h-1.026a1.465,1.465,0,1,0,0,2.93Z" transform="translate(-272.253 0)" fill="#e3db00"/><path d="M122.206,79.963a4.981,4.981,0,1,0-4.981-4.981A4.987,4.987,0,0,0,122.206,79.963Zm0-7.033a2.051,2.051,0,1,1-2.051,2.051A2.053,2.053,0,0,1,122.206,72.93Z" transform="translate(-100.05 -59.744)" fill="#e3db00"/><path d="M493.453,164a1.466,1.466,0,1,0,1.036.429A1.476,1.476,0,0,0,493.453,164Z" transform="translate(-419.906 -139.972)" fill="#e3db00"/><path d="M493.453,2.93a1.466,1.466,0,0,0,1.465-1.465,1.465,1.465,0,1,0-2.5,1.036A1.476,1.476,0,0,0,493.453,2.93Z" transform="translate(-419.906 0)" fill="#e3db00"/><path d="M98.453,19.93a1.466,1.466,0,1,0-1.036-.429A1.476,1.476,0,0,0,98.453,19.93Z" transform="translate(-82.778 -14.509)" fill="#e3db00"/><path d="M429.266,207.579a1.464,1.464,0,1,0,1.036-.429A1.474,1.474,0,0,0,429.266,207.579Z" transform="translate(-366.007 -176.8)" fill="#e3db00"/></svg>