<svg xmlns="http://www.w3.org/2000/svg" width="30.434" height="35.998" viewBox="0 0 30.434 35.998"><g transform="translate(89.179 1980.243)"><g transform="translate(-89.179 -1980.243)"><path d="M-73.935-1867.4a46.363,46.363,0,0,1-11.623-1.635,4.525,4.525,0,0,1-3.608-4.732,16.646,16.646,0,0,1,1.334-7.815,14.588,14.588,0,0,1,4.9-5.782.854.854,0,0,1,1.306.159,10.519,10.519,0,0,0,12.9,1.906,13.417,13.417,0,0,0,2.483-1.915c.462-.423.784-.522,1.312-.151a13.642,13.642,0,0,1,5.868,8.859,23.513,23.513,0,0,1,.256,5.677,3.855,3.855,0,0,1-3.036,3.613c-2.33.6-4.706,1.06-7.085,1.432C-70.576-1867.524-72.265-1867.516-73.935-1867.4Z" transform="translate(89.179 1903.395)" fill="#e3db00"/><path d="M-33.658-1971.469a8.708,8.708,0,0,1-8.8,8.735,8.715,8.715,0,0,1-8.717-8.91,8.7,8.7,0,0,1,8.849-8.6A8.7,8.7,0,0,1-33.658-1971.469Z" transform="translate(57.659 1980.243)" fill="#e3db00"/></g></g></svg>