<svg xmlns="http://www.w3.org/2000/svg" width="68.796" height="66.729" viewBox="0 0 68.796 66.729"><path d="M386.1,321.373h-1.026v-1.026a1.465,1.465,0,1,0-2.93,0v1.026H381.12a1.465,1.465,0,1,0,0,2.93h1.026v1.026a1.465,1.465,0,0,0,2.93,0V324.3H386.1a1.465,1.465,0,0,0,0-2.93Z" transform="translate(-385.099 -186.359) rotate(-13)" fill="#e3db00"/><path d="M320.453,5.421h1.026V6.447a1.465,1.465,0,0,0,2.93,0V5.421h1.026a1.465,1.465,0,0,0,0-2.93h-1.026V1.465a1.465,1.465,0,0,0-2.93,0V2.491h-1.026a1.465,1.465,0,1,0,0,2.93Z" transform="translate(-242.104 -95.818) rotate(18)" fill="#e3db00"/><path d="M320.009,3.779h.715v.715a1.021,1.021,0,1,0,2.043,0V3.779h.715a1.021,1.021,0,0,0,0-2.043h-.715V1.021a1.021,1.021,0,1,0-2.043,0v.715h-.715a1.021,1.021,0,1,0,0,2.043Z" transform="translate(-297.231 127.774) rotate(-16)" fill="#e3db00"/><path d="M122.206,79.963a4.981,4.981,0,1,0-4.981-4.981A4.987,4.987,0,0,0,122.206,79.963Zm0-7.033a2.051,2.051,0,1,1-2.051,2.051A2.053,2.053,0,0,1,122.206,72.93Z" transform="translate(-79.046 -72.162) rotate(7)" fill="#e3db00"/><path d="M120.546,76.642a3.321,3.321,0,1,0-3.321-3.321A3.325,3.325,0,0,0,120.546,76.642Zm0-4.688a1.367,1.367,0,1,1-1.367,1.367A1.369,1.369,0,0,1,120.546,71.953Z" transform="translate(-90.301 -83.764) rotate(7)" fill="#e3db00"/><path d="M493.453,164a1.466,1.466,0,1,0,1.036.429A1.476,1.476,0,0,0,493.453,164Z" transform="translate(-467.977 -190.91) rotate(7)" fill="#e3db00"/><path d="M429.266,207.579a1.464,1.464,0,1,0,1.036-.429A1.474,1.474,0,0,0,429.266,207.579Z" transform="translate(-342.893 -206.167) rotate(7)" fill="#e3db00"/><g transform="translate(-409.93 669.648) rotate(7)"><g transform="translate(349.212 -690.869)"><path d="M511.945-528.154h-11.7V-539.89h11.7Zm-6.931-6.987h4.837v-2.644h-7.536v7.528h2.7Zm2.206,2.221v2.651h2.629v-2.651Z" transform="translate(-480.736 559.39)" fill="#e3db00"/><path d="M504.907-650.692h-2.741v4.778h-2.079v-6.843h11.728v11.7H500.1v-2.027h9.619v-2.732h-4.813Zm2.171-.006v2.661h2.639V-650.7Z" transform="translate(-480.601 657.68)" fill="#e3db00"/><path d="M387.163-539.914h6.928v4.749h2.735v-3.714h2.057v10.691h-11.72Zm2.076,9.629h7.542v-2.71h-4.848v-4.828h-2.693Z" transform="translate(-382.261 559.411)" fill="#e3db00"/><path d="M387.156-652.976h11.7v11.736h-11.7Zm9.619,9.654v-7.537h-7.537v7.537Z" transform="translate(-382.255 657.87)" fill="#e3db00"/><path d="M349.212-684.891v-5.85h5.847v2.1h-3.729v3.75Z" transform="translate(-349.212 690.758)" fill="#e3db00"/><path d="M583.374-690.869h5.845V-685h-2.057v-3.729h-3.788Z" transform="translate(-553.13 690.869)" fill="#e3db00"/><path d="M349.331-456.576h2.074v3.725h3.755v2.126h-5.83Z" transform="translate(-349.316 486.837)" fill="#e3db00"/><path d="M589.264-450.647h-5.855v-2.085h3.731v-3.754h2.125Z" transform="translate(-553.16 486.759)" fill="#e3db00"/><path d="M426.66-615.36v2.037h-2.083v-2.037Z" transform="translate(-414.843 625.113)" fill="#e3db00"/></g></g></svg>