<svg xmlns="http://www.w3.org/2000/svg" width="46" height="46" viewBox="0 0 46 46"><circle cx="23" cy="23" r="23" fill="#f7f7f7"/><g transform="translate(11.203 13.381)"><path d="M436.925-489.382c0-.494-.006-.929,0-1.364a5.019,5.019,0,0,1,4.631-4.744,5.008,5.008,0,0,1,3.771,1.358.477.477,0,0,0,.539.138q1.212-.451,2.422-.907c.109-.041.209-.1.389-.194a4.51,4.51,0,0,1-.792,1.505c-.336.441-.691.868-.939,1.178l2.407-.654c-.429.5-.785.962-1.183,1.38a10.045,10.045,0,0,1-1.038.918.559.559,0,0,0-.243.5,14.3,14.3,0,0,1-3.225,9.388,13.25,13.25,0,0,1-8.815,4.977,14.251,14.251,0,0,1-8.116-1.172,11.076,11.076,0,0,1-1.447-.824,10.227,10.227,0,0,0,7.046-2.1,5.627,5.627,0,0,1-2.77-1.048,4.971,4.971,0,0,1-1.749-2.449h2.017l.042-.1a5.132,5.132,0,0,1-3.843-4.939,5.186,5.186,0,0,0,2.207.585,5.057,5.057,0,0,1-2.139-4.208,4.6,4.6,0,0,1,.668-2.4A14.232,14.232,0,0,0,436.925-489.382Z" transform="translate(-425.287 495.497)" fill="#0080e3"/></g></svg>